<svg width="50" height="16" viewBox="0 0 50 16" fill="none" xmlns="http://www.w3.org/2000/svg">
<path d="M31.7424 15.3688V3.41455H37.1272C38.1766 3.41455 39.0519 3.57471 39.7533 3.89504C40.4547 4.21537 40.9822 4.67929 41.3356 5.2868C41.6946 5.88879 41.8741 6.61781 41.8741 7.47385V7.49042C41.8741 8.19182 41.7084 8.85181 41.3771 9.47037C41.0457 10.0834 40.5707 10.539 39.9522 10.8373L42.2221 15.3688H38.2953L36.4065 11.3592C36.3844 11.3592 36.3595 11.3592 36.3319 11.3592C36.3043 11.3592 36.2767 11.3592 36.2491 11.3592H35.255V15.3688H31.7424ZM35.255 9.03958H36.7213C37.2018 9.03958 37.5829 8.90151 37.8645 8.62537C38.1517 8.34923 38.2953 7.98472 38.2953 7.53184V7.51527C38.2953 7.07344 38.1517 6.7117 37.8645 6.43003C37.5829 6.14837 37.2018 6.00753 36.7213 6.00753H35.255V9.03958Z" fill="#111111"/>
<path d="M22.5488 15.3688V3.41455H30.9822V6.19807H26.0614V8.1366H30.9822V10.655H26.0614V12.5853H30.9822V15.3688H22.5488Z" fill="#111111"/>
<path d="M0.72583 15.3688V13.1652L5.97807 6.36376V6.19807H0.767252V3.41455H10.1451V5.60989L4.89283 12.4196V12.5853H10.3356V15.3688H0.72583Z" fill="#111111"/>
<path fill-rule="evenodd" clip-rule="evenodd" d="M15.8665 15.3688C19.1676 15.3688 21.8436 12.6927 21.8436 9.39166C21.8436 6.0906 19.1676 3.41455 15.8665 3.41455C12.5654 3.41455 9.8894 6.0906 9.8894 9.39166C9.8894 12.6927 12.5654 15.3688 15.8665 15.3688ZM16.9378 12.6827C17.9134 12.365 18.2245 10.6339 17.6326 8.81614C17.0406 6.9984 15.7699 5.78239 14.7942 6.1001C13.8186 6.4178 13.5075 8.14893 14.0994 9.96666C14.6913 11.7844 15.9621 13.0004 16.9378 12.6827Z" fill="#FF642F"/>
<path d="M45.4042 7.74707L46.2645 4.80526L49.2063 3.94494L46.2645 3.08462L45.4042 0.142812L44.5439 3.08462L41.6021 3.94494L44.5439 4.80526L45.4042 7.74707Z" fill="#111111"/>
</svg>
