<svg width="68" height="22" viewBox="0 0 68 22" fill="none" xmlns="http://www.w3.org/2000/svg">
<path d="M43.5684 21.3882V4.78955H51.0452C52.5023 4.78955 53.7177 5.01194 54.6917 5.45672C55.6656 5.9015 56.3979 6.54566 56.8887 7.3892C57.3872 8.22508 57.6364 9.23733 57.6364 10.426V10.449C57.6364 11.4229 57.4063 12.3393 56.9462 13.1982C56.4861 14.0494 55.8266 14.682 54.9677 15.0961L58.1195 21.3882H52.6671L50.0445 15.8208C50.0138 15.8208 49.9793 15.8208 49.941 15.8208C49.9026 15.8208 49.8643 15.8208 49.8259 15.8208H48.4456V21.3882H43.5684ZM48.4456 12.6H50.4816C51.1488 12.6 51.6779 12.4083 52.069 12.0249C52.4678 11.6414 52.6671 11.1353 52.6671 10.5065V10.4835C52.6671 9.86999 52.4678 9.3677 52.069 8.9766C51.6779 8.5855 51.1488 8.38996 50.4816 8.38996H48.4456V12.6Z" fill="white"/>
<path d="M30.8029 21.3882V4.78955H42.5128V8.65452H35.6801V11.3462H42.5128V14.8431H35.6801V17.5232H42.5128V21.3882H30.8029Z" fill="white"/>
<path d="M0.501099 21.3882V18.3285L7.79393 8.88458V8.65452H0.558613V4.78955H13.5799V7.83782L6.28705 17.2932V17.5232H13.8444V21.3882H0.501099Z" fill="white"/>
<path fill-rule="evenodd" clip-rule="evenodd" d="M21.5242 21.3882C26.1078 21.3882 29.8235 17.6725 29.8235 13.0889C29.8235 8.50529 26.1078 4.78955 21.5242 4.78955C16.9406 4.78955 13.2249 8.50529 13.2249 13.0889C13.2249 17.6725 16.9406 21.3882 21.5242 21.3882ZM23.0119 17.6588C24.3666 17.2176 24.7985 14.8139 23.9766 12.29C23.1547 9.766 21.3902 8.07754 20.0355 8.51868C18.6808 8.95983 18.2489 11.3635 19.0708 13.8875C19.8927 16.4115 21.6572 18.0999 23.0119 17.6588Z" fill="#FF642F"/>
<path d="M62.5381 10.8052L63.7327 6.72042L67.8174 5.52585L63.7327 4.33127L62.5381 0.246521L61.3435 4.33127L57.2588 5.52585L61.3435 6.72042L62.5381 10.8052Z" fill="white"/>
</svg>
