<svg width="87" height="28" viewBox="0 0 87 28" fill="none" xmlns="http://www.w3.org/2000/svg">
<path d="M57.6782 27.2521V5.02222H67.6917C69.643 5.02222 71.2708 5.32005 72.5752 5.91573C73.8795 6.5114 74.8603 7.3741 75.5176 8.50382C76.1851 9.62327 76.5189 10.9789 76.5189 12.5708V12.6016C76.5189 13.906 76.2108 15.1332 75.5946 16.2835C74.9784 17.4235 74.0952 18.2708 72.9449 18.8254L77.1659 27.2521H69.8638L66.3514 19.7959C66.3103 19.7959 66.2641 19.7959 66.2128 19.7959C66.1614 19.7959 66.1101 19.7959 66.0587 19.7959H64.2101V27.2521H57.6782ZM64.2101 15.4824H66.9368C67.8303 15.4824 68.539 15.2257 69.0628 14.7122C69.5968 14.1987 69.8638 13.5208 69.8638 12.6787V12.6478C69.8638 11.8262 69.5968 11.1535 69.0628 10.6298C68.539 10.106 67.8303 9.84408 66.9368 9.84408H64.2101V15.4824Z" fill="white"/>
<path d="M40.5815 27.2521V5.02222H56.2642V10.1984H47.1134V13.8032H56.2642V18.4865H47.1134V22.0759H56.2642V27.2521H40.5815Z" fill="white"/>
<path d="M0 27.2521V23.1543L9.76697 10.5065V10.1984H0.0770266V5.02222H17.5158V9.10463L7.74888 21.7678V22.0759H17.8702V27.2521H0Z" fill="white"/>
<path d="M28.1553 5.02222C34.2937 5.02238 39.2695 9.99894 39.2695 16.1375C39.2694 22.2758 34.2936 27.2515 28.1553 27.2517C22.0168 27.2517 17.0402 22.2759 17.04 16.1375C17.04 9.99884 22.0167 5.02222 28.1553 5.02222ZM31.4395 15.0671C30.3387 11.6871 27.9754 9.42557 26.1611 10.0164C24.3471 10.6075 23.7686 13.8268 24.8691 17.2068C25.9698 20.5869 28.3332 22.8481 30.1475 22.2576C31.9618 21.6668 32.5402 18.4474 31.4395 15.0671Z" fill="white"/>
<path d="M81.2147 10.7898L82.4355 6.61562L86.6096 5.39489L82.4355 4.17417L81.2147 -1.04904e-05L79.994 4.17417L75.8198 5.39489L79.994 6.61562L81.2147 10.7898Z" fill="white"/>
</svg>
